<svg xmlns="http://www.w3.org/2000/svg" width="1250" height="580" viewBox="0 0 1250 580">
<rect width="1250" height="580" fill="#faf7f2"/>
<text x="625.0" y="38" text-anchor="middle" font-size="24" font-weight="700" fill="#1f2937">Decision Tree Feature Importance</text>
<text x="418" y="109" text-anchor="end" font-size="13" fill="#1f2937">major_te</text>
<rect x="430" y="95" width="730.0" height="18" rx="5" fill="#2f855a"/>
<text x="1168.0" y="109" font-size="13" fill="#1f2937">0.508</text>
<text x="418" y="139" text-anchor="end" font-size="13" fill="#1f2937">skill::Molecular Biology</text>
<rect x="430" y="125" width="318.6" height="18" rx="5" fill="#2f855a"/>
<text x="756.6" y="139" font-size="13" fill="#1f2937">0.222</text>
<text x="418" y="169" text-anchor="end" font-size="13" fill="#1f2937">numconnections</text>
<rect x="430" y="155" width="153.7" height="18" rx="5" fill="#2f855a"/>
<text x="591.7" y="169" font-size="13" fill="#1f2937">0.107</text>
<text x="418" y="199" text-anchor="end" font-size="13" fill="#1f2937">skill::Clinical Leadership</text>
<rect x="430" y="185" width="87.2" height="18" rx="5" fill="#2f855a"/>
<text x="525.2" y="199" font-size="13" fill="#1f2937">0.061</text>
<text x="418" y="229" text-anchor="end" font-size="13" fill="#1f2937">skill::Phases of Clinical Research</text>
<rect x="430" y="215" width="51.6" height="18" rx="5" fill="#2f855a"/>
<text x="489.6" y="229" font-size="13" fill="#1f2937">0.036</text>
<text x="418" y="259" text-anchor="end" font-size="13" fill="#1f2937">skill::Analytical Biochemistry</text>
<rect x="430" y="245" width="45.1" height="18" rx="5" fill="#2f855a"/>
<text x="483.1" y="259" font-size="13" fill="#1f2937">0.031</text>
<text x="418" y="289" text-anchor="end" font-size="13" fill="#1f2937">entry_job_year</text>
<rect x="430" y="275" width="44.1" height="18" rx="5" fill="#2f855a"/>
<text x="482.1" y="289" font-size="13" fill="#1f2937">0.031</text>
<text x="418" y="319" text-anchor="end" font-size="13" fill="#1f2937">prestige</text>
<rect x="430" y="305" width="5.0" height="18" rx="5" fill="#2f855a"/>
<text x="443.0" y="319" font-size="13" fill="#1f2937">0.003</text>
<text x="418" y="349" text-anchor="end" font-size="13" fill="#1f2937">school_te</text>
<rect x="430" y="335" width="1.8" height="18" rx="5" fill="#2f855a"/>
<text x="439.8" y="349" font-size="13" fill="#1f2937">0.001</text>
<text x="418" y="379" text-anchor="end" font-size="13" fill="#1f2937">n_skills</text>
<rect x="430" y="365" width="0.2" height="18" rx="5" fill="#2f855a"/>
<text x="438.2" y="379" font-size="13" fill="#1f2937">0.000</text>
<text x="418" y="409" text-anchor="end" font-size="13" fill="#1f2937">degree_te</text>
<rect x="430" y="395" width="0.0" height="18" rx="5" fill="#2f855a"/>
<text x="438.0" y="409" font-size="13" fill="#1f2937">0.000</text>
<text x="418" y="439" text-anchor="end" font-size="13" fill="#1f2937">skill::Acute Care RN</text>
<rect x="430" y="425" width="0.0" height="18" rx="5" fill="#2f855a"/>
<text x="438.0" y="439" font-size="13" fill="#1f2937">0.000</text>
<text x="418" y="469" text-anchor="end" font-size="13" fill="#1f2937">skill::Public Health Interventions</text>
<rect x="430" y="455" width="0.0" height="18" rx="5" fill="#2f855a"/>
<text x="438.0" y="469" font-size="13" fill="#1f2937">0.000</text>
<text x="418" y="499" text-anchor="end" font-size="13" fill="#1f2937">skill::Social Statistics</text>
<rect x="430" y="485" width="0.0" height="18" rx="5" fill="#2f855a"/>
<text x="438.0" y="499" font-size="13" fill="#1f2937">0.000</text>
<text x="418" y="529" text-anchor="end" font-size="13" fill="#1f2937">skill::Healthcare Delivery Process</text>
<rect x="430" y="515" width="0.0" height="18" rx="5" fill="#2f855a"/>
<text x="438.0" y="529" font-size="13" fill="#1f2937">0.000</text>
</svg>